# xmcd
#
# Track frame offsets:
#	150
#	24515
#	49215
#	86517
#	98467
#	134345
#	152050
#	193047
#	210460
#	239560
#	285412
#	313692
#
# Disc length: 4473
#
# Revision: 1
# Processed by: cddbd v1.5.1PL0 Copyright (c) Steve Scherf et al.
# Submitted via: CDex 1.50
# Normalized: r0:DSETVAR1,TDELIM( - )
#
DISCID=9d11770c
DTITLE=Various Artist - The Prestige Records Story - CD3
DYEAR=1999
DGENRE=Jazz
TTITLE0=Gene Ammons - Canadian Sunset
TTITLE1=Coleman Hawkins - Trouble is a Man
TTITLE2=Eddie Lockjaw Dawis - Very Saxy
TTITLE3=Mose Allison - The 7th Son
TTITLE4=Eric Dolphy - G.W
TTITLE5=Roland Kirk - Kirks Work
TTITLE6=Oliver Nelson - Soul Street
TTITLE7=Etta Jones - Dont go to Strangers
TTITLE8=Shirley Scott - Hip Soul
TTITLE9=Willis Jackson - This will get to ya
TTITLE10=Jack Mc Duff - Rock candy
TTITLE11=Willis Jackson - Troubled Times
EXTD=YEAR: 1999
EXTT0=
EXTT1=
EXTT2=
EXTT3=
EXTT4=
EXTT5=
EXTT6=
EXTT7=
EXTT8=
EXTT9=
EXTT10=
EXTT11=
PLAYORDER=
